<svg xmlns="http://www.w3.org/2000/svg" xmlns:xlink="http://www.w3.org/1999/xlink" aria-hidden="true" role="img" class="iconify iconify--clarity" width="1em" height="1em" preserveAspectRatio="xMidYMid meet" viewBox="0 0 36 36" data-icon="clarity:switch-line" style="color: white; width: 100px; height: auto;"><path d="M5.71 14h15.21v-2H5.71l3.71-3.73A1 1 0 1 0 8 6.86L1.89 13L8 19.14a1 1 0 1 0 1.42-1.4z" class="clr-i-outline clr-i-outline-path-1" fill="currentColor"></path><path class="clr-i-outline clr-i-outline-path-2" d="M23 12h3v2h-3z" fill="currentColor"></path><path class="clr-i-outline clr-i-outline-path-3" d="M28 12h2v2h-2z" fill="currentColor"></path><path d="M27.92 17.86a1 1 0 0 0-1.42 1.41L30.21 23H15v2h15.21l-3.71 3.74a1 1 0 1 0 1.42 1.4L34 24z" class="clr-i-outline clr-i-outline-path-4" fill="currentColor"></path><path class="clr-i-outline clr-i-outline-path-5" d="M10 23h3v2h-3z" fill="currentColor"></path><path class="clr-i-outline clr-i-outline-path-6" d="M6 23h2v2H6z" fill="currentColor"></path></svg>